<?xml version="1.0" encoding="UTF-8"?>
<svg width="3871px" height="2367px" viewBox="0 0 3871 2367" version="1.1" xmlns="http://www.w3.org/2000/svg" xmlns:xlink="http://www.w3.org/1999/xlink">
    <!-- Generator: Sketch 57.1 (83088) - https://sketch.com -->
    <title>composition-4</title>
    <desc>Created with Sketch.</desc>
    <g id="composition-4" stroke="none" stroke-width="1" fill="none" fill-rule="evenodd">
        <rect fill="#6EE8FF" x="0" y="0" width="3871" height="2367"></rect>
        <circle id="Oval" fill="#FFFFFF" cx="694" cy="985" r="475"></circle>
        <g id="Character/reading" transform="translate(219.000000, 765.000000)">
            <path d="M707.5303,369.697977 C706.189478,391.620033 704.846681,413.540114 703.505859,435.46217 C712.135303,432.976998 767.031992,416.827335 763.64143,433.202205 C761.208599,444.946516 745.774335,457.650918 737.911076,465.827487 C730.673796,473.356095 723.221275,480.687153 715.579182,487.804857 C729.62523,482.429538 743.787786,477.33869 758.053026,472.575774 C768.846742,468.972474 779.719446,465.454119 790.779747,462.753619 C794.88515,461.750068 805.971122,457.656844 809.849435,460.448217 C820.040867,467.781251 764.743314,521.795206 757.16836,529.40876 C767.879139,524.428539 778.846629,519.904658 790.001715,516.022813 C798.054546,513.219587 822.935779,502.508459 830.062475,511.654996 C837.690745,521.441593 818.792856,543.914812 813.551999,551.040418 C806.042211,561.249771 797.904468,571.04427 789.365861,580.410087 C824.855188,612.28073 866.5589,640.646848 910.942281,658.278131 C943.485354,671.205764 975.451814,674.496936 1009.79187,667.402938 C1045.0699,660.113365 1078.90245,646.13477 1111.06441,630.153024 C1129.95242,620.765477 1148.59163,610.609462 1166.34814,599.199009 C1159.02792,590.295458 1151.92097,581.208186 1145.01544,571.980654 C1135.15971,558.806085 1123.04689,544.410661 1117.4269,528.727214 C1111.92735,513.377626 1132.561,516.374451 1142.45821,517.208109 C1156.79059,518.415136 1171.08347,520.977351 1185.12952,524.041343 C1175.19875,517.135016 1165.44768,509.95212 1155.8921,502.536116 C1143.43766,492.871999 1126.82647,481.943567 1118.67491,468.04004 C1111.50674,455.813708 1127.23919,458.901405 1134.51398,460.503531 C1151.85778,464.324136 1168.73358,470.833389 1185.27565,477.182626 C1197.39044,481.832939 1209.43019,486.702532 1221.35344,491.830914 C1213.95226,485.398706 1206.79989,478.65832 1199.92596,471.669023 C1190.68436,462.275549 1178.22399,450.803856 1174.08107,437.868321 C1165.64515,411.52511 1222.39608,431.396603 1232.08594,435.46217 C1230.29488,408.172697 1228.50778,380.883223 1226.7187,353.59375 C1151.57343,373.585749 1076.42618,393.579723 1001.27893,413.573697 C993.158959,415.734887 982.995172,420.440514 974.52568,420.691402 C966.853966,420.920559 957.588669,417.467396 950.108501,416.039113 L814.122688,390.061368 C778.591892,383.273571 743.061096,376.485774 707.5303,369.697977" id="Accent" fill="#FF5678"></path>
            <g id="Ink" stroke-width="1" transform="translate(408.793982, 75.325733)" fill="#000000">
                <path d="M1106.3971,1233.00041 C1098.28442,1237.64107 1088.78178,1241.2248 1079.76878,1243.62909 C1074.4755,1245.04362 1065.72905,1249.40573 1061.07941,1245.40713 C1058.84639,1243.48685 1058.33503,1239.12672 1057.01813,1236.59994 C1054.9332,1232.59936 1051.96967,1229.14405 1049.1937,1225.60774 C1042.46505,1217.0396 1035.46394,1208.77372 1028.13706,1200.71133 C1024.66612,1196.89053 1018.32444,1187.97271 1012.20785,1188.55946 C1004.58284,1189.29043 1004.76645,1199.84207 1006.67764,1205.23346 C1012.76067,1222.39543 1031.17561,1237.35659 1043.20544,1250.28684 C1040.14715,1254.9927 1023.34921,1254.43163 1018.68575,1253.33123 C1011.5642,1251.65 1010.84356,1246.58063 1007.59375,1240.78029 C999.992427,1227.22773 984.57063,1219.6454 971.893207,1211.67784 C967.271209,1208.76977 957.448722,1200.71725 951.424922,1202.74421 C945.717021,1204.66449 945.963818,1211.95442 947.782212,1216.7156 C950.528559,1223.91071 958.341137,1228.90105 964.118141,1233.44887 C971.822129,1239.50998 978.866678,1246.10649 985.287326,1253.52681 C976.033459,1254.28149 966.813155,1255.58538 957.58298,1256.34598 C946.419897,1257.26661 937.11667,1251.14227 926.840079,1247.67116 C917.29203,1244.44501 907.777545,1241.7187 898.387446,1238.00063 C887.84629,1233.8262 876.803643,1232.37414 866.169692,1228.7114 C824.437453,1214.34094 783.546295,1196.26624 743.330371,1178.04733 C724.167145,1169.3646 705.398793,1160.67792 685.431998,1153.88386 C670.880898,1148.93105 648.013756,1139.06099 644.534917,1121.7311 C642.698754,1112.57423 649.389891,1102.72787 650.375101,1093.57891 C651.532081,1082.81588 650.621897,1070.97418 647.34247,1060.64776 C644.451994,1051.55016 639.662175,1043.12623 635.887181,1034.39214 C631.490261,1024.21191 635.427153,1024.37786 643.970248,1023.22016 C654.195505,1021.8333 666.128592,1016.07839 675.739821,1012.3307 C686.812082,1008.01008 697.7876,1001.97464 707.92796,995.769306 C717.100878,990.156648 725.081278,982.922029 732.382495,975.065098 C739.810071,967.071852 744.619634,957.600862 751.800415,949.412032 C778.304345,982.001403 803.49532,1015.08665 831.65772,1046.26742 C844.949173,1060.98558 859.403529,1073.15523 875.782895,1084.34499 C882.622109,1089.02121 889.408016,1094.35729 896.859284,1098.05165 C906.178306,1102.67651 916.595078,1105.54507 926.172742,1109.76493 C962.896007,1125.94306 997.943032,1143.62856 1032.20228,1164.50267 C1048.77711,1174.59992 1062.68654,1186.17689 1077.28108,1198.84439 C1081.8241,1202.78767 1119.03504,1225.76974 1106.3971,1233.00041 M675.611487,966.016886 C669.676533,968.705667 664.019966,972.196538 657.688164,973.92123 C659.482866,963.002132 669.674559,946.531619 682.740933,948.343237 C687.734113,949.034694 691.499235,952.910806 689.30571,958.254783 C687.311598,963.110789 679.838611,964.104512 675.611487,966.016886 M262.53399,669.847939 C255.80534,673.562052 249.536718,675.725326 245.591929,667.753811 C248.513995,667.16706 261.787678,665.398905 262.53399,669.847939 M251.33142,647.312357 C246.132906,645.735834 250.290927,644.078312 252.079706,642.175817 C253.47361,640.696098 258.087711,635.502266 259.702745,634.644859 C266.834166,630.867526 272.346604,644.92189 275.75634,649.483533 C267.683145,648.766393 259.191383,649.694921 251.33142,647.312357 M306.921755,695.975147 C297.067679,697.644522 298.16148,685.316826 298.455661,679.071979 C300.534671,681.60864 314.606,694.673232 306.921755,695.975147 M339.579794,674.682213 C327.565758,676.709171 319.62682,655.955573 321.780857,646.877727 C323.676251,638.880529 332.987376,634.41569 340.399157,633.236262 C347.583886,632.092394 357.58604,633.653112 359.720333,641.93677 C361.605855,649.258315 347.587835,673.330908 339.579794,674.682213 M623.973838,987.979545 C615.339922,990.632766 606.879751,990.966641 598.202399,993.570472 C588.35622,996.525958 579.244507,996.263204 569.378584,998.274357 C565.364692,999.090277 554.537252,1004.93803 550.622078,1003.63216 C546.744417,1002.33815 541.131286,990.304818 538.902224,987.175479 C556.35762,979.921104 571.248312,970.554821 582.752961,955.269663 C591.902187,943.113844 601.712827,924.902834 595.957541,909.214655 C589.465815,891.527177 567.090291,887.686626 552.171958,895.075341 C545.113589,898.568188 538.118399,902.912516 532.299933,908.236737 C525.64631,914.323537 523.030271,920.96943 518.720223,928.47668 C514.360816,936.070857 511.302518,931.847041 506.94706,925.398707 C503.225374,919.886805 503.711069,914.321561 499.059456,908.882756 C496.686264,906.109024 493.011963,903.432096 491.774034,899.848372 C490.988235,897.576441 492.642756,893.548208 491.154082,891.758321 C489.059276,889.245368 486.51234,892.198879 484.757126,889.954606 C483.483658,888.324742 483.90025,884.608653 482.583346,882.569842 C481.442161,881.410169 480.172641,880.420397 478.768865,879.598551 C477.064984,878.756948 476.755008,877.703958 477.834988,876.439579 C476.480571,873.932552 477.785629,873.086998 474.885281,870.036684 C470.363976,865.283409 466.241493,860.727693 463.023271,855.117011 C461.552367,852.548741 461.69847,848.739799 459.870204,846.517257 C457.362755,843.464967 453.18499,843.923305 451.028979,840.145972 C449.107918,836.779563 450.393233,830.892298 447.226345,827.836056 C445.556028,827.359939 443.885712,826.891723 442.213421,826.429435 C440.955748,825.208519 440.223257,823.726824 440.013974,821.982376 C438.254811,819.273839 437.905348,816.093136 435.684183,813.232478 C431.433366,807.762063 425.715594,802.706522 421.960344,796.937792 C418.01358,790.8747 420.106411,789.853318 426.963395,787.684118 C433.147119,785.72433 438.793814,783.906786 444.525408,780.571986 C471.025389,765.152488 496.149236,724.2518 454.087277,711.756178 C438.477915,707.119463 425.654388,694.649524 408.347069,699.550969 C400.844466,701.676706 393.726866,706.200813 388.12953,711.568497 C384.261741,715.280635 380.680235,725.206011 375.931877,727.108506 C367.394706,730.526281 371.003852,721.985795 368.581301,718.062269 C367.424321,716.189408 362.766785,714.032061 361.041186,712.327125 C359.015483,710.329801 357.056909,707.806969 355.651158,705.335503 C353.041042,700.748178 351.443778,698.191762 347.678656,694.455916 C346.259085,693.045344 339.173074,685.759359 345.564107,686.711595 C342.975709,678.82503 346.752677,677.639675 351.972909,671.876872 C358.103325,665.110468 364.433152,655.708624 364.468691,646.227757 C364.539768,628.024649 342.965837,619.869404 329.417717,630.673918 C326.661497,632.872753 310.355183,654.096541 313.691867,640.561758 C315.490517,633.261944 332.146295,614.205381 339.868052,619.136459 C331.214392,606.526253 311.336445,637.143983 306.696677,643.408586 C302.745965,636.136431 302.465604,630.446725 295.928468,624.816287 C290.607544,633.350846 293.417071,624.024075 292.244296,622.127506 C289.709206,618.034079 291.101136,622.716233 289.726975,621.262197 C288.015197,619.450578 285.320183,618.022225 283.499815,615.623856 C280.380312,619.855575 281.626139,615.301835 280.670544,613.721361 C278.435558,610.025027 279.300332,607.883485 275.470056,604.669197 C272.682247,602.332071 267.191527,598.702908 263.440225,598.371008 C259.114383,597.987743 257.915941,599.645265 253.509149,598.418423 C247.901941,596.85968 240.845546,594.465262 243.560303,603.841423 C245.530724,610.655241 253.542713,614.527402 255.297927,621.48939 C257.064988,628.496816 250.134952,635.559558 246.772602,641.304581 C242.454657,648.675516 238.924485,648.07296 231.102034,649.734433 C226.102932,650.797302 219.431539,653.069233 223.717894,659.132326 C226.780141,663.4648 233.954998,662.552076 237.996531,665.11837 C243.66297,668.715924 243.583996,677.586334 250.818084,679.129271 C258.784663,680.828281 263.349404,671.959847 270.066208,669.818305 C274.842207,668.295123 289.638129,668.465024 293.397327,672.050724 C298.520815,676.936364 294.09428,686.271037 295.383543,692.340057 C297.300655,701.340856 303.391583,701.89007 311.093597,702.178507 C320.576492,702.532138 323.909227,711.635667 329.009022,718.856457 C340.953955,735.769503 351.335188,753.798759 363.570353,770.486587 C368.986047,777.875302 376.90919,784.448098 381.343623,792.467027 C386.820523,802.370671 379.217228,808.082109 372.656399,815.19029 C364.083689,824.479525 357.682784,835.048944 350.24731,845.201513 C343.639097,854.224043 335.427696,851.977795 324.86877,851.977795 C327.222218,847.127715 330.053463,844.103084 335.842314,844.69181 C329.788898,837.301119 324.947745,845.754679 321.020725,850.436832 C315.340465,857.209163 307.934607,858.842978 300.637339,863.295963 C298.054864,864.87051 283.993407,875.082347 288.265942,878.569267 C288.751637,878.964386 312.027474,863.655521 314.679051,862.250875 C314.679051,867.903044 313.443096,873.774505 314.234818,879.395065 C314.815283,883.51615 317.713657,887.815039 317.095679,892.100099 C315.924878,900.188174 305.470594,906.559459 300.982853,912.861599 C297.604708,917.604996 298.420122,921.346768 296.700447,926.437869 C295.132798,931.082487 295.95611,929.67784 292.048833,931.11212 C284.092126,934.034022 270.701955,932.457499 263.497482,928.302828 C259.025536,925.72468 255.596057,921.649033 251.963218,918.057406 C249.226742,915.348869 242.344092,910.724008 241.58396,906.934822 C240.278902,900.411416 253.232737,888.289181 255.797443,881.560314 C263.037454,862.568945 250.620647,847.807319 231.299471,846.728646 C237.254168,842.135394 244.636334,845.596631 250.912854,847.348982 C240.182158,832.482649 221.856064,844.715517 212.754223,854.818696 C206.53496,839.100884 203.535893,822.519737 199.737207,806.126272 C197.14881,794.966151 187.298682,775.044278 191.691653,763.552258 C193.816075,757.996892 199.812233,754.899163 203.960383,751.046758 C208.673202,746.668846 212.708812,741.435502 216.154086,736.016452 C224.272692,723.25215 228.959844,707.139219 217.782941,694.560623 C221.178855,694.00153 224.576745,693.444413 227.972659,692.885321 C222.448375,687.69544 213.73351,690.224198 206.564576,688.685211 C202.015629,687.709269 188.927537,688.341458 185.890957,685.767261 C182.238374,682.673484 184.579976,668.433414 184.710284,664.219476 C185.010388,654.371148 185.8337,644.902134 186.921578,635.113074 C187.952198,625.865327 187.74489,615.874756 189.656079,606.789007 C191.207933,599.416097 196.165574,597.169848 201.887295,592.825521 C215.561775,582.435881 226.705114,569.799992 222.035732,551.897175 C223.690253,551.634421 225.344774,551.371667 226.999295,551.108913 C221.648755,547.240704 214.724643,548.647325 208.773895,546.602587 C214.238948,531.222601 226.326036,504.18662 245.951264,502.730609 C246.626498,509.60567 246.164496,517.782646 250.804263,523.474328 C256.085701,529.952295 265.357338,530.606216 272.512451,527.178564 C279.004177,524.06503 285.099054,517.468527 288.092198,510.951048 C290.115926,506.539551 289.750668,499.079714 293.304532,495.582916 C298.070659,490.892859 330.928109,493.721908 329.921181,501.638106 C329.32887,506.292601 320.542928,514.115947 318.086812,518.240984 C313.593148,525.789722 309.995848,533.954845 308.345275,542.62572 C305.839801,555.791067 307.290962,573.172328 320.663364,580.094804 C335.871929,587.969515 354.407306,577.957213 366.879395,569.30807 C373.728482,564.558746 380.362362,559.317499 386.619137,553.813499 C389.951872,550.885671 393.300402,547.866966 396.238263,544.536118 C398.406121,542.076505 400.139617,538.111491 402.808964,536.270239 C409.115098,531.919985 415.296848,539.300798 420.633568,543.028741 C429.326715,549.101711 437.976425,554.868465 447.307294,559.922031 C466.241493,570.17733 483.554735,583.761503 500.295411,597.248872 C517.134805,610.81724 534.497406,624.7748 548.138322,641.677968 C539.875587,646.759191 541.350441,648.078887 537.674166,657.142904 C535.066024,663.575433 531.472673,669.049799 531.058055,676.197492 C530.341359,688.531115 538.260554,699.043242 550.280512,701.77351 C557.003239,703.300643 563.408092,702.077752 569.635252,699.329703 C574.474431,697.194087 579.299789,691.937036 584.356148,690.63117 C593.756119,688.207118 601.278466,705.961766 606.548057,712.216491 C629.950253,739.993319 654.687123,766.671718 676.723056,795.582536 C679.163377,798.784971 686.41326,805.039697 687.001622,809.279318 C687.848626,815.368093 678.268987,821.168432 674.296557,824.659304 C672.209649,826.490678 650.084869,847.299592 657.51442,850.606733 C659.630943,851.549091 665.830462,838.782813 667.380342,837.690311 C673.183013,833.60281 668.79399,841.615813 668.448476,845.665777 C667.583702,855.733396 674.499917,861.219615 684.22171,859.943383 C694.59702,858.5822 703.833118,850.393369 710.253766,842.658926 C718.29932,851.975819 730.876051,866.059817 733.201858,878.506048 C734.688558,886.457807 727.807882,905.917392 740.653127,907.539353 C742.613675,907.786302 749.709558,902.523324 751.032385,905.51042 C752.136057,908.005593 744.465634,912.268921 743.358012,913.094719 C738.631373,916.623126 735.776435,920.402435 731.95998,924.675641 C727.480136,929.69167 721.357618,933.917462 716.317054,938.724078 C711.006001,943.787521 700.502357,957.539619 693.495322,950.895702 C689.973047,947.556951 690.899026,943.190892 685.258254,941.231104 C680.120946,939.447144 673.613425,941.709198 668.839401,943.688741 C663.465168,945.915234 645.764949,954.044796 643.800452,960.738103 C641.091618,969.96807 655.721693,958.871168 658.321937,957.249207 C655.356434,964.778189 653.715734,975.677532 646.161798,980.069274 C639.885278,983.718193 630.858463,985.863686 623.973838,987.979545 M523.640351,931.037048 C528.663146,914.894483 558.286579,886.112079 577.009521,895.114853 C555.188794,899.686373 537.873577,914.6179 523.640351,931.037048 M534.718535,977.263933 C527.417319,973.196188 527.810218,961.378195 525.261308,954.465597 C523.7983,950.498608 520.872285,947.600414 521.73311,943.198794 C522.740038,938.038547 529.322585,932.301427 532.82709,928.579411 C543.855916,916.864149 563.263963,900.855924 581.015516,903.540754 C603.610195,906.960504 588.29304,937.289798 580.598924,947.732779 C574.042044,956.636773 548.774069,985.097156 534.718535,977.263933 M482.008804,957.521839 C457.574013,955.889999 433.222145,953.70697 409.121022,949.222375 C400.575952,947.632023 393.41689,947.867119 398.305428,938.044474 C399.920462,934.802527 409.654101,914.48356 411.851574,915.06636 C413.154658,915.412088 412.856528,929.37755 413.239555,930.97778 C414.965154,938.166961 419.810256,944.866194 427.97822,944.409832 C441.342725,943.665034 449.956897,926.388479 456.993548,917.115049 C462.630372,924.693421 466.711393,933.11142 472.377832,940.563354 C475.086666,944.125347 484.516253,952.410981 482.008804,957.521839 M338.754508,861.622636 C334.655718,871.028431 326.410752,879.973913 320.677185,888.494643 C317.435271,881.633411 315.154874,865.882013 322.845042,860.808692 C325.755262,858.890392 341.346854,855.676103 338.754508,861.622636 M423.500351,889.630609 C424.627716,886.009348 425.877492,882.417721 427.271396,878.891289 C429.662357,886.414344 430.884492,886.637586 423.500351,889.630609 M444.416817,897.335419 C447.38232,902.361325 452.32614,907.304257 451.550213,913.616275 C450.961851,918.399184 446.637983,923.300628 443.550069,926.633453 C438.440402,932.147331 427.11937,942.730579 419.715486,935.409034 C413.529788,929.2926 415.683824,912.476358 418.56048,905.59537 C422.669142,895.762847 437.346602,885.361354 444.416817,897.335419 M429.905205,887.03468 C431.605136,886.359028 428.033503,875.388564 431.348468,874.296061 C434.238945,880.886637 436.963574,882.670597 429.905205,887.03468 M383.215325,739.394715 C382.113627,735.346726 379.588409,735.516627 380.498593,730.512452 C381.094853,727.230993 383.699045,723.728268 385.675389,721.128388 C389.612281,715.94641 394.806846,711.675179 400.423926,708.441134 C412.281986,701.617439 428.566582,698.782464 439.182765,709.466467 C429.257612,711.033112 398.83061,720.828098 398.637122,734.402393 C409.673845,732.276656 418.353171,721.191607 429.423459,717.69876 C438.509505,714.8302 448.363581,715.03171 457.402243,718.060293 C482.145036,726.345928 471.856599,747.727763 457.891886,761.616177 C449.601511,769.8623 439.660562,776.018245 428.793635,780.265769 C423.764917,782.231483 420.678978,782.448798 415.735158,781.461002 C414.809179,781.275297 413.727225,779.558507 412.617629,779.191047 C409.859436,778.276347 410.659055,781.372101 408.386556,779.981284 C406.40429,778.770245 402.175191,770.9469 400.826697,768.706578 C398.680558,765.14261 397.679553,761.675445 395.045744,758.421645 C392.407987,755.165868 391.124647,750.801785 388.684327,747.856177 C387.513526,746.437702 384.303202,746.494994 383.440403,745.112079 C382.147191,743.033756 383.793815,741.520452 383.215325,739.394715 M345.216618,898.856625 C350.839621,889.087321 360.460721,880.793784 367.904093,872.255274 C368.362146,886.289882 358.296813,895.899163 345.216618,898.856625 M352.815964,903.368878 C364.429203,899.283353 370.828133,889.508122 372.012755,877.656543 C373.51525,862.644017 382.942862,854.765355 388.619173,841.277987 C390.794928,836.109837 393.331992,819.101963 401.768471,823.969822 C404.662896,825.639198 406.378623,831.919606 407.887041,834.756556 C411.535675,841.619764 415.683824,848.273559 419.553588,855.012304 C422.704681,860.5005 427.427372,866.016354 426.037416,872.622734 C424.825153,878.381586 420.9238,884.517776 418.639455,889.948679 C413.245478,902.7762 406.159468,914.590242 400.238335,927.135253 C397.849348,932.196721 395.022052,944.178688 387.728733,944.117679 C381.955677,944.068055 382.601296,937.758013 378.800636,935.594739 C374.002919,932.864471 368.547737,938.060279 364.606896,940.213674 C369.143997,932.552327 377.078986,928.213927 385.997211,929.656109 C375.317849,919.023471 368.103504,933.370223 358.938483,936.564755 C350.255208,939.593338 334.849206,925.313757 327.538117,921.267744 C330.335798,916.532249 332.862991,910.739812 337.672554,907.624303 C342.235321,904.666842 347.834631,905.121228 352.815964,903.368878 M258.397687,1000.53641 C259.66918,994.41405 263.262532,990.794764 265.540954,985.235448 C268.18266,991.976169 261.996962,995.953036 258.397687,1000.53641 M442.910374,1038.10427 C442.286473,1058.72156 440.602336,1079.28352 439.994231,1099.90673 C439.71387,1109.41723 438.029733,1118.48915 436.912241,1127.88902 C435.966518,1135.8388 436.448264,1143.64634 431.443238,1150.43843 C423.551685,1161.14614 408.210837,1164.22411 396.299469,1168.1911 C387.553014,1171.10312 378.705866,1173.74647 370.068001,1176.98249 C362.296885,1179.89451 356.032212,1184.30601 348.642148,1187.76725 C342.031961,1190.86497 334.894616,1192.7003 328.314044,1195.99954 C321.508394,1199.41336 316.128238,1203.57198 309.136997,1206.61045 C300.767647,1210.24751 293.871176,1216.71955 286.427804,1221.85609 C279.874874,1226.37822 272.942864,1229.87107 267.30604,1235.55682 C262.020654,1240.8929 255.329517,1243.232 249.339281,1247.97145 C243.005506,1252.98352 236.375574,1256.24128 229.37841,1260.17073 C215.044491,1268.22522 195.705546,1281.97929 178.455483,1274.15595 C183.389431,1267.85578 193.486355,1261.80059 194.254384,1253.11984 C195.253415,1241.81155 185.409211,1245.97412 179.709208,1249.5855 C171.075292,1255.05394 166.299293,1261.65637 159.726618,1268.94631 C152.042374,1277.46704 142.336375,1271.73387 132.93443,1269.33748 C139.362976,1263.55097 145.740188,1257.71112 152.156887,1251.91473 C157.574556,1247.02316 165.862957,1241.73253 169.162128,1234.9681 C171.519525,1230.12987 171.405011,1223.49978 165.71488,1220.98881 C159.349514,1218.18149 152.150964,1224.10234 147.436171,1227.62877 C134.920645,1236.9911 126.677654,1248.86441 118.46033,1261.89345 C114.089077,1268.82185 112.075221,1268.29041 104.033615,1266.90552 C95.5122386,1265.43766 86.9888873,1263.87299 78.3964331,1262.8437 C89.7786708,1251.1561 102.499531,1238.49453 111.488833,1224.81948 C114.401027,1220.38823 118.199714,1208.7105 109.326899,1207.63578 C105.670367,1207.19324 98.3908687,1214.66889 95.5694953,1216.68399 C83.2435092,1225.49316 71.393346,1236.60389 63.2234068,1249.46499 C60.5264187,1253.71054 59.6794143,1258.43221 54.4572082,1258.78386 C47.6298399,1259.24615 34.9425443,1252.73065 28.3560491,1250.71752 C40.9446263,1234.85154 53.4443568,1218.87097 68.151432,1204.87983 C81.6640139,1192.02267 95.1430316,1182.68207 110.945882,1172.82189 C127.883994,1162.2505 143.661177,1150.08282 159.211308,1137.5951 C174.096076,1125.64079 189.646207,1114.36609 203.348328,1101.01899 C230.717032,1074.35837 255.094567,1043.69718 275.282491,1011.27573 C280.005182,1003.68946 284.451461,995.905622 288.295558,987.833352 C291.904704,980.253004 293.569097,971.187011 298.44184,964.292194 C300.125977,961.909629 302.497194,960.139498 303.997715,957.654203 C305.413337,955.313126 304.933566,952.484078 307.091551,950.411682 C312.082756,945.62087 321.170777,948.509186 325.836211,951.867693 C333.338814,957.266987 339.408024,963.822003 347.652989,968.342158 C355.947314,972.887996 364.918847,976.193162 374.101637,978.427557 C395.565003,983.645096 416.842779,987.926204 438.708916,991.09703 C436.458136,999.439956 441.984395,1000.75373 443.814635,1008.26098 C446.037774,1017.37043 443.18876,1028.82689 442.910374,1038.10427 M236.243291,898.981087 C231.376472,891.752395 227.034834,884.193778 222.250938,876.917672 C219.338743,872.486418 215.727622,867.727216 218.217302,862.308167 C222.410862,853.171052 237.204809,851.54514 245.232594,855.527934 C263.483661,864.584049 246.529754,890.476162 236.243291,898.981087 M187.934429,733.651668 C186.254241,719.522232 191.658089,709.498076 204.442129,702.089605 C213.553842,696.808847 220.890598,704.025686 219.646745,713.650771 C217.753325,728.315593 202.080783,744.626083 190.120056,752.277552 C189.338205,746.076168 188.674817,739.858979 187.934429,733.651668 M185.985727,693.225122 C189.756772,690.2321 199.85567,694.05092 204.224948,694.311698 C198.216943,699.560847 192.206964,704.809996 186.196984,710.059145 C185.804085,706.45764 182.506889,695.987 185.985727,693.225122 M206.262497,556.772936 C236.669755,552.819776 201.666166,585.446683 192.854557,590.559516 C194.287949,583.617285 197.810223,557.873341 206.262497,556.772936 M287.211629,499.652636 C283.128634,516.374049 251.386702,534.616669 251.055008,507.225081 C250.932597,497.019171 256.666165,497.844969 265.035516,496.865075 C269.80954,496.307958 289.545333,490.092744 287.211629,499.652636 M177.57294,525.5487 C174.009204,534.899178 171.152292,544.492655 167.659633,553.854987 C166.111728,557.999779 164.291359,560.848583 161.408781,564.133993 C158.996102,566.880067 156.125369,567.5735 156.220139,571.913876 C159.242898,571.331076 161.608192,569.529336 164.050486,567.79279 C163.458176,576.398471 160.415673,585.660047 158.942794,594.238069 C157.177708,604.524978 155.708777,614.815839 155.163851,625.246966 C153.981204,647.928742 153.971332,670.529518 154.468873,693.225122 C154.723567,704.79024 154.83808,716.361284 155.461981,727.912572 C155.773931,733.65957 156.125369,739.430276 156.836142,745.141713 C157.1244,747.447229 158.798665,752.356576 157.764095,754.517874 C153.702818,763.001068 135.712367,739.698956 127.899789,743.118706 C129.023205,736.662471 126.430858,738.075019 122.101067,734.900242 C120.004287,733.361256 118.639998,730.743596 116.452397,729.372535 C115.790983,728.659346 115.062441,728.025181 114.268745,727.468064 C113.364484,726.235295 112.410863,726.367659 111.407884,727.861207 C102.606147,722.600205 100.331673,711.388718 95.6070083,703.845907 C93.17656,699.967819 90.8290351,699.363288 90.4144176,694.00153 C90.0550825,689.329254 90.7579579,684.568077 90.5684184,679.876045 C90.3532122,674.583433 90.0432363,668.747534 88.5585107,663.622847 C86.8348865,657.672363 84.4636693,658.158359 79.84562,654.987533 C81.2691401,654.365221 82.2069654,653.320133 82.6610703,651.852268 C81.1862166,652.115022 76.7043988,653.942445 75.5908547,652.628676 C73.4012794,650.048552 78.5682032,649.704799 79.9265692,648.675516 C74.1317959,646.103294 75.3795972,643.989411 77.470454,639.275647 C78.0627647,637.942123 78.6274343,635.94875 79.1308984,634.824638 C80.230622,632.367001 80.8624201,633.923768 81.225704,630.871478 C81.5712186,627.96143 78.9907182,622.238139 78.2305861,619.138435 C76.9551437,613.9367 76.2502939,609.442228 77.395428,604.023178 C78.3233815,599.635387 80.818984,595.662471 80.9927284,591.150218 C81.0420877,589.883864 79.1111547,589.463063 79.0854879,588.240171 C79.0479749,586.45226 80.7163168,585.665974 81.150678,584.014379 C82.258299,579.786611 81.7587836,575.315846 83.654178,571.303418 C85.3600328,567.699938 88.8053069,563.03754 91.2436527,559.892397 C92.9337126,557.713318 97.0798876,555.257657 97.5339925,552.381195 C97.8340966,550.474748 94.8666199,550.694039 94.9989026,549.257783 C95.1785702,547.3138 96.8093991,546.683586 97.2575808,545.239428 C98.4915615,541.274415 98.8015375,537.463497 101.990143,534.425036 C106.00601,530.600289 107.751352,532.202495 107.917199,525.894428 C107.998149,522.816456 105.53611,522.342314 106.854989,518.79415 C107.571685,516.867947 109.686234,515.730006 111.038677,514.364872 C115.054544,510.314907 117.761404,506.717354 120.62029,501.713178 C123.149457,497.291803 127.183093,494.719582 129.773465,490.900762 C133.147662,485.924245 128.103149,483.45673 134.950261,482.052084 C133.976897,478.962257 132.942327,476.465109 135.503084,473.849424 C137.118118,472.199805 141.216908,473.209332 142.646351,471.30091 C144.285078,469.109978 141.862527,463.918122 144.332463,462.495695 C146.340396,461.341949 149.34736,464.901967 152.502402,463.139738 C154.907183,461.796336 158.538048,454.377987 157.764095,451.651669 C163.981384,455.148468 162.431504,452.74022 165.406878,448.25365 C166.074215,447.248074 168.095969,447.024832 168.67051,446.009377 C169.819593,443.980444 169.557002,441.911999 171.211523,440.262379 C173.969717,437.516306 178.48115,438.221593 181.515755,436.259829 C184.023204,434.639844 183.890921,432.89342 185.890957,431.364312 C187.600761,430.058445 190.408314,429.807545 192.070732,428.454264 C195.326467,425.803019 195.358057,423.003605 199.43118,420.71982 C204.254564,418.01721 208.527098,415.71762 212.914147,412.133896 C215.775007,409.798746 218.489765,405.657904 221.83632,404.116942 C226.464241,401.985278 230.069439,401.835133 234.596668,398.794697 C237.868197,396.595862 240.962034,392.968675 244.174332,391.115569 C246.596883,389.720801 248.296815,390.021091 251.351164,389.155782 C256.847807,387.597039 258.186429,382.419012 262.670221,380.311055 C265.748263,378.862946 270.230081,380.188568 273.6102,379.427965 C284.129639,377.067132 294.520743,371.974055 305.07572,369.152909 C317.960453,365.711428 330.936006,362.696674 343.919457,359.654262 C331.988345,375.822509 316.791626,390.410283 301.379701,403.251633 C296.321368,407.467547 268.599252,426.684133 283.541277,434.890744 C289.53941,438.184056 302.570246,427.545492 307.413373,424.945612 C317.164782,419.708317 327.265654,415.51611 337.479065,411.28044 C353.994663,404.431061 375.503439,392.249559 393.857174,393.229453 C382.68422,406.934137 368.737277,417.936211 355.95916,430.04264 C344.215613,441.169176 326.521317,451.604255 332.059422,469.815265 C315.563569,465.619107 300.747903,460.66037 283.598534,461.758799 C275.916264,462.250722 268.230045,461.326145 260.583313,462.402843 C252.267271,463.57832 244.436923,466.359954 236.446651,468.801786 C230.124722,470.73194 223.139404,470.88406 217.322913,474.094398 C214.511411,475.647213 211.036522,477.863828 208.511304,479.790031 C205.145004,482.358301 204.378949,484.059286 201.735269,487.443475 C192.303708,499.518295 183.178174,510.838439 177.57294,525.5487 M125.982676,754.089171 C125.467366,751.998994 124.999441,750.092547 124.409104,747.706032 C129.658952,750.938101 129.658952,750.938101 125.982676,754.089171 M86.30773,687.527514 C85.6601369,688.422457 82.9414307,688.708918 82.1516831,687.936462 C81.1684473,686.976324 83.7528964,683.238503 84.1675139,682.444315 C85.1922115,683.230601 87.5496081,685.804798 86.30773,687.527514 M75.0676469,663.302801 C75.7626248,660.750336 76.4595771,658.199846 77.154555,655.647381 C78.0074824,658.012165 81.8555277,660.627849 81.9404256,662.882 C81.9937336,664.375548 75.827779,663.632725 75.0676469,663.302801 M77.2986839,666.803551 C83.3224839,670.768565 83.9523077,675.446767 84.1319753,682.290219 C76.9235538,679.903703 77.9581232,672.925911 77.2986839,666.803551 M182.054758,396.742056 C181.446652,398.387725 178.866152,403.514387 176.974706,399.928687 C176.370549,398.780867 180.797085,397.214223 182.054758,396.742056 M180.325211,391.153105 C181.813885,389.811678 184.814926,391.481054 186.499063,390.396454 C187.679735,389.635851 187.28881,388.86537 187.843608,388.414935 C187.954173,388.324057 189.559335,385.076183 190.2168,384.339288 C191.377729,383.043299 193.910844,382.235282 195.322518,381.065731 C199.267308,377.796126 201.494396,373.497237 203.976178,369.125251 C206.937731,363.903761 207.88148,363.299229 212.657479,360.908763 C215.950726,359.261119 218.503585,357.244039 221.182804,354.442649 C224.270717,351.216507 224.043665,348.907039 226.578755,345.380607 C227.830505,343.64011 229.633104,343.424771 231.092163,342.0221 C232.841454,340.342847 233.72992,337.993867 235.346928,336.298809 C236.045855,335.565864 238.288738,335.56784 238.711253,334.939602 C239.250256,334.145413 239.670796,330.968661 240.176235,330.383886 C241.141701,331.687777 242.109142,332.991668 243.072634,334.295558 C246.879218,327.602252 249.657155,322.072569 256.022521,317.617608 C262.707734,312.939406 268.478815,306.095954 275.389107,301.907698 C276.940961,300.967316 280.105875,300.570222 281.292471,299.183356 C283.298429,296.836353 281.560985,294.748151 283.023992,292.754779 C284.684437,290.494701 287.900684,292.3241 290.011284,291.350133 C292.682606,290.117363 293.446686,286.515858 296.886037,286.912952 C285.576851,300.289688 285.719006,321.102553 285.118798,337.810137 C284.858181,345.009196 289.393307,348.638359 282.698221,353.921093 C277.004141,358.415565 268.974382,357.08204 262.241783,360.039502 C253.787535,363.753616 244.744925,365.729208 236.118906,368.967204 C227.196732,372.313857 220.021875,378.17544 211.435344,382.053527 C203.863639,385.471302 198.692766,390.331259 191.766679,394.551124 C189.192102,396.119745 185.203877,398.397603 182.133733,396.522765 C180.210697,395.347288 177.815788,393.417134 180.325211,391.153105 M308.04912,278.992803 C308.540738,277.092283 318.193428,272.097985 320.568594,270.468122 C324.132331,268.018387 329.407845,262.036294 333.386198,264.412931 C334.764308,258.893126 340.142489,252.75101 344.894796,251.581459 C350.166361,250.281519 359.210946,245.761364 364.397613,241.816106 C365.911954,240.664336 366.41147,238.979156 368.194325,237.898507 C371.298033,236.015767 374.378049,237.043075 377.367244,234.476781 C377.825297,234.085614 381.961601,227.255991 382.125473,227.321186 C382.336731,228.05413 382.530219,228.794977 382.69804,229.539776 C385.837287,227.799279 388.632994,226.414389 390.589593,224.193823 C391.033826,223.690047 388.157171,222.380229 389.065381,221.382555 C390.17695,220.161639 392.658732,221.526773 393.782148,220.367101 C390.287515,237.712801 392.889733,260.03897 410.489259,268.832331 C389.558973,271.094385 369.116355,264.802123 347.927427,268.666382 C337.785093,270.517512 327.474937,273.553997 318.248711,278.21837 C312.596092,281.077053 305.367927,291.314572 299.740975,286.343982 C301.973987,283.366764 305.379773,281.51761 308.04912,278.992803 M409.606716,229.091316 C417.433115,219.519571 429.304997,215.732361 441.261776,219.160014 C455.260052,223.174417 449.356689,232.953599 447.242139,243.811455 C443.20258,237.890604 434.452177,232.017168 427.000908,231.839365 C416.438033,231.588465 420.430208,240.387753 426.773855,243.540798 C432.540987,246.405407 442.430602,247.203547 446.559008,252.413184 C450.576849,257.482553 449.036841,265.772139 449.684434,271.750281 C446.560982,271.286017 443.43753,270.821753 440.312104,270.357489 C442.934066,256.405856 431.395853,255.730203 420.637516,251.796799 C409.764666,247.823883 400.700337,239.984732 409.606716,229.091316 M444.665588,194.735766 L444.665588,207.683798 C440.314078,205.202454 435.960595,202.723086 431.607111,200.241742 C435.960595,198.406416 440.314078,196.571091 444.665588,194.735766 M479.651408,298.19556 C494.184738,302.132916 508.617376,306.29944 522.588012,311.732319 C527.66214,313.705935 533.219989,314.403319 538.191451,316.631788 C542.925988,318.751598 543.636761,318.530332 541.952624,322.679076 C537.235856,334.301485 526.060927,332.294283 516.270031,330.51625 C500.944978,327.732641 485.937799,323.874309 470.80426,320.24317 C456.012287,316.696982 440.908364,314.37171 426.339494,309.926627 C411.389572,305.36696 396.820702,301.048315 381.442342,298.037513 C376.954601,297.158374 341.45347,293.902598 341.722421,290.192436 C364.081714,287.288315 387.100883,290.148973 409.559331,290.451238 C432.900323,290.765357 457.013292,292.05937 479.651408,298.19556 M459.923512,253.237006 C460.201898,245.245735 460.312463,237.228781 461.30557,229.284924 C467.95722,237.49351 473.961276,239.951147 482.346422,232.256215 C490.374206,224.891207 492.164959,221.050656 502.342831,227.975107 C511.166287,233.980907 519.513919,233.704324 528.884275,228.447273 C534.600073,225.240887 543.784838,212.138759 549.792843,214.835442 C552.655678,216.121553 554.754433,221.303531 557.644909,223.209978 C561.271825,225.598469 566.849418,227.255991 571.076542,228.182544 C581.060926,230.369524 587.0097,223.948849 593.276348,217.081691 C602.364369,207.12273 602.097829,212.907264 610.524436,219.811959 C619.922433,227.514794 627.780422,223.75129 636.289952,217.178495 C641.474645,232.364873 643.413476,248.94997 644.878458,264.871269 C645.37205,270.246855 647.218085,277.880544 642.388778,281.681584 C638.984966,284.362463 631.76075,284.467169 627.659985,285.948863 C613.010167,291.245426 598.932915,298.758604 586.679981,308.377763 C581.905956,312.125461 577.743986,316.714762 571.220671,315.861307 C565.003383,315.047363 558.961813,309.843652 553.960736,306.408097 C548.53517,302.68213 543.04445,298.450411 536.702776,296.374064 C532.988988,295.157099 527.040214,295.597656 523.790403,293.367212 C517.748833,289.220444 524.858536,278.342833 523.354067,271.041044 C522.214856,265.497532 519.024276,253.938341 511.387416,257.18819 C500.022948,262.022465 506.637084,280.895298 512.885962,286.786514 C500.101923,284.516559 485.947671,281.201515 473.617736,276.989552 C464.093379,273.735752 459.581946,262.984578 459.923512,253.237006 M674.33407,292.160125 C700.577383,284.793142 725.134586,279.824527 752.446033,278.4831 C764.535095,277.888447 776.239155,278.263809 788.19396,278.372467 C795.07661,278.435686 800.320534,272.886247 794.821917,266.503108 C787.212698,257.664308 764.002015,261.028742 753.717527,260.631648 C726.151386,259.566803 700.875513,262.700093 674.768431,271.785842 C677.528599,266.700667 684.160505,266.040819 688.707477,263.411306 C694.283095,260.183188 698.073884,254.866869 700.456947,248.965775 C706.654491,233.619374 700.415485,219.158038 693.931657,205.139235 C706.668312,208.564912 719.843277,216.066236 732.64706,217.970707 C735.332202,218.369777 737.053852,218.11295 739.429018,219.090868 C740.886102,219.689472 741.34613,221.761869 743.152678,222.214279 C744.025349,222.43357 746.122129,220.461929 747.109314,220.740488 C751.008693,221.842868 747.924728,222.135256 750.390715,223.731534 C752.347315,224.997889 752.189365,226.627753 755.778768,226.029148 C757.37011,225.766394 759.095708,223.304806 759.934815,223.237636 C761.002949,223.15071 760.756153,221.85077 762.39093,222.230084 C765.36433,222.921541 765.101739,226.752215 766.092872,228.63693 C767.151134,230.644132 765.648639,233.313157 768.856989,234.411586 C771.255847,235.233433 771.85803,232.700723 773.897553,232.882478 C775.135483,232.993111 777.706111,234.777071 778.799912,235.863647 C782.32416,239.364396 787.149518,243.23063 791.888004,245.508488 C791.422053,245.040273 794.121016,243.91221 793.475397,243.64748 C793.041036,243.471653 795.87623,244.155208 795.832794,244.14533 C798.569269,244.767641 800.014507,248.967751 801.396566,250.498835 C803.939553,253.306151 807.890265,256.26954 811.454002,257.508236 C817.616008,259.651754 817.428442,257.089411 819.677249,264.410956 C824.058374,257.524041 825.738562,269.057549 831.172026,270.327855 C833.985501,270.985727 833.657756,269.780616 836.214564,271.252432 C837.969778,272.26196 839.140579,275.353762 840.463406,276.845334 C841.032025,274.693914 841.598669,272.540518 842.165313,270.391074 C846.078512,277.803496 854.524863,289.55827 863.788603,287.432533 C863.788603,289.45554 862.955419,291.873665 864.521093,293.600332 C865.614894,294.807419 867.385903,293.436358 868.242779,294.137693 C868.989091,294.750127 870.775895,297.188008 871.348462,297.589053 C872.475826,298.37929 874.523247,298.956163 875.502534,299.744424 C876.365334,300.437857 876.791797,303.750926 877.749366,304.948135 C879.548016,307.198334 882.657648,307.644818 884.128553,310.343477 C884.464195,307.682354 884.799838,305.019256 885.133507,302.358133 C888.051624,304.612284 888.302369,306.362659 889.019065,309.659922 C890.039814,314.355905 888.685397,313.2555 891.925336,315.237019 C895.108019,317.186929 896.768464,316.967638 899.686581,320.349852 C902.547442,323.664896 902.573109,325.707659 906.701514,322.254323 C907.469544,324.808764 907.71634,328.11393 909.765735,330.071742 C911.31364,331.551461 917.724417,331.61468 918.336471,335.109503 C906.29282,324.949031 914.217937,340.380383 918.342394,335.135185 C919.213091,340.749819 923.323727,342.563412 928.016803,346.562011 C932.393979,350.287978 933.110675,350.017322 934.605272,356.277974 C934.571708,356.139683 936.804719,357.524573 936.966618,357.801156 C932.701981,358.409638 939.314143,363.174767 940.431635,364.046003 C941.24705,364.682144 942.30926,363.162913 943.663678,364.192197 C945.213557,365.36965 946.475179,368.046578 947.736801,369.660637 C951.154434,374.036574 953.683601,377.796126 957.280901,381.354168 C961.162511,385.194719 963.050008,390.048749 966.777616,394.537295 C970.911945,399.521715 973.148905,405.252908 976.606026,410.664055 C979.89335,415.810473 984.25868,419.941437 988.065264,424.653224 C994.1325,432.152573 996.195715,448.668525 1007.50688,449.103155 C1006.84349,449.788686 1007.76552,454.907445 1007.87411,455.851778 C1008.40916,460.500347 1008.05378,464.973088 1010.80407,469.183075 C1011.4339,464.38041 1013.94727,466.23154 1016.13092,468.754372 C1019.76178,472.952505 1016.57318,471.895564 1016.76469,476.149014 C1016.99767,481.30531 1017.58406,477.316589 1019.54855,481.818964 C1021.08659,485.345396 1021.92964,487.633132 1022.75493,491.54678 C1016.36587,492.052532 1013.43985,486.833017 1011.07851,481.775501 C1010.09132,479.659641 1009.74976,476.182599 1008.00244,474.529028 C1006.14259,472.768775 1003.58775,472.630484 1001.67656,470.666745 C998.008186,466.893364 996.418819,461.01005 992.094951,457.337424 C987.210362,453.18868 986.128408,451.228892 982.090823,446.26818 C977.6248,440.78196 971.456871,436.929555 966.771693,431.623114 C962.078618,426.306795 962.459671,429.20894 956.564205,427.284713 C950.295583,425.236024 940.159173,405.529491 932.261696,413.119716 C932.573647,408.155053 925.136198,403.484753 921.377,401.684988 C919.752094,400.90858 917.860648,401.611891 916.233768,400.446292 C914.470657,399.181913 914.344297,396.744032 912.56539,395.226777 C912.567365,395.228752 909.838787,395.8886 909.285963,395.610042 C908.158599,395.039096 908.150701,393.02004 907.155619,392.356241 C904.403349,390.516965 901.121947,388.588787 898.201855,387.022142 C891.102024,383.215176 884.827479,378.527095 877.976419,373.943721 C872.108594,370.016243 865.004814,362.923867 858.220882,360.853446 C852.2958,359.045779 848.570166,359.966405 843.719141,356.345144 C841.075461,354.373503 841.853362,353.71168 837.606494,352.484837 C833.562986,351.317262 831.292462,351.917842 829.150272,347.630807 C825.402919,340.129483 827.768213,325.488368 827.04362,317.076296 C826.273616,308.148594 825.359483,298.999626 823.031702,290.318873 C820.277457,280.059623 816.640669,274.695889 805.633562,277.112039 C783.824681,281.904826 762.280366,286.464493 740.372766,290.672504 C696.717492,299.056918 653.812478,312.739871 611.116747,324.887788 C607.864961,325.814341 589.722483,329.967036 593.428374,320.586923 C595.136203,316.260376 606.619134,314.648293 610.46323,313.289085 C631.565287,305.821346 652.764088,298.21334 674.33407,292.160125 M666.999289,273.068001 C663.810683,274.282991 660.624051,275.49798 657.435445,276.714945 L657.435445,267.850462 C660.624051,269.588983 663.810683,271.327504 666.999289,273.068001 M653.749298,226.197074 C656.519338,228.461102 662.152213,223.012419 664.507635,221.908063 C668.531399,220.023348 673.654887,218.405337 678.150525,218.792553 C686.440901,219.509694 692.504188,227.670865 690.985899,235.944646 C688.41527,249.943693 668.466245,256.563903 657.467035,262.036294 C657.113623,257.075581 655.508461,251.111268 658.987299,246.820282 C662.008084,243.094315 667.866037,243.364971 670.653846,239.401933 C677.668779,229.440996 658.657579,228.53815 654.408737,236.4583 C652.732498,231.396832 651.056258,226.335365 649.380019,221.273897 C653.425501,220.604172 651.648569,224.482259 653.749298,226.197074 M673.370578,198.795608 C669.411968,201.354 665.453358,203.912392 661.496722,206.470784 C659.534199,197.614204 666.221387,196.448604 673.370578,198.795608 M1034.03845,507.051229 C1028.85375,509.524671 1027.55857,503.617649 1023.83096,503.362798 C1028.2338,500.656237 1028.2338,500.656237 1034.03845,507.051229 M1055.11879,636.025798 C1055.7644,644.514918 1055.25897,653.102818 1056.39028,661.558353 C1057.2511,667.990882 1059.85727,673.976926 1060.13566,680.482552 C1060.74376,694.730524 1055.93223,709.239274 1046.21438,719.68423 C1037.02172,729.564168 1023.86847,738.067117 1011.45956,742.221788 C1005.86815,744.090698 1000.03191,748.237466 994.600425,749.770526 C988.59242,751.46756 982.884519,747.775178 977.928853,754.397363 C974.623759,725.992297 977.038412,696.310998 976.777796,667.726152 C976.517179,639.080064 976.825181,610.424097 971.978104,582.086201 C967.662134,556.848009 959.152603,528.460723 943.468215,507.813808 C937.096926,499.429394 929.252758,492.562235 920.980151,486.133657 C916.687873,482.798858 912.39362,479.232913 907.613673,476.599449 C900.255199,472.545533 893.988552,473.106602 885.986434,471.95088 C874.533119,470.297309 863.887321,468.900566 852.392544,472.124732 C841.691464,475.127633 829.906455,478.547383 820.320893,483.762947 C810.772844,488.96073 799.684788,491.102272 789.773455,495.756768 C783.030985,498.923642 769.02481,509.502939 761.543926,507.598468 C754.30194,505.753265 743.583091,493.465081 738.959118,487.96108 C733.049832,480.925996 728.161294,472.772727 722.919344,465.204232 C721.079232,462.547061 717.325956,458.439804 716.848159,455.027956 C716.01695,449.105131 718.390141,451.041211 724.048683,451.703034 C738.599783,453.409946 752.284135,456.108605 766.229104,460.688028 C773.169011,462.965886 786.73885,472.184 793.678757,466.660244 C804.275196,458.22644 788.174216,443.731519 782.276776,438.861684 C772.229211,430.564197 760.54687,424.402324 749.835917,417.029414 C738.457628,409.194215 723.410962,400.853264 716.088027,388.788321 C737.472418,395.100339 758.835092,402.329031 779.595582,410.466496 C789.094272,414.188512 798.482397,418.121916 807.402596,423.072751 C812.413545,425.852409 822.53811,433.371513 828.571781,429.770009 C841.68949,421.940736 811.562592,399.203644 807.215031,394.557051 C800.460715,387.336261 793.84263,380.184617 786.419002,373.633553 C781.410028,369.214153 773.542167,366.106546 771.214386,359.587091 C779.526479,362.595918 786.247232,368.48911 794.032169,372.493636 C798.107267,374.591715 801.825004,375.798802 806.326565,376.440869 C811.124282,377.128376 811.696849,377.89293 815.477766,379.799376 C818.42155,381.286997 821.446284,383.274443 824.751377,384.285947 C827.1068,385.007038 831.221385,385.1315 833.280652,386.467 C834.33299,387.968451 835.418893,389.444218 836.542309,390.894303 C837.798008,391.263739 839.033963,391.688491 840.252149,392.172511 C842.07844,393.800399 843.160395,396.044672 844.937327,397.723926 C857.829957,409.91333 875.074096,418.637546 889.528452,428.849383 C903.202932,438.510029 917.714545,447.250049 930.848048,457.793786 C945.961843,469.929849 961.648205,482.97271 974.503322,497.524923 C981.769001,505.749314 987.741467,515.074109 993.844242,524.167761 C998.26288,530.75241 1004.68945,536.214923 1008.50788,543.005034 C1016.83577,557.808147 1023.74804,573.810445 1032.71167,588.374511 C1041.84708,603.215161 1053.7466,617.960982 1055.11879,636.025798 M932.261696,721.91665 C934.751376,711.64357 948.80296,699.647773 957.782391,695.11774 C953.257137,706.311446 941.199665,713.945135 932.261696,721.91665 M955.430917,757.753894 C947.77234,773.641608 914.095526,775.459153 918.664216,751.947629 C920.903151,740.42795 930.405789,733.35928 938.561908,725.82042 C942.332953,722.337451 951.567077,709.875415 957.405286,711.882616 C957.130849,720.841927 956.603693,729.84075 956.623436,738.802037 C956.635282,744.784131 958.141726,752.131359 955.430917,757.753894 M945.697278,574.636242 C948.804935,581.614034 951.900745,587.424251 946.135588,593.667123 C943.535344,596.484318 935.057403,602.648166 931.223178,601.27908 C918.912987,596.889314 942.382312,577.775458 945.697278,574.636242 M871.241846,512.551278 C874.207348,512.389279 877.085978,512.829836 880.015942,512.650058 C882.934059,512.468303 883.242061,511.950698 885.946947,512.320134 C886.23323,512.735008 886.517539,513.149882 886.803823,513.564757 C887.17303,516.348366 888.636037,516.650632 891.188897,514.473529 C894.740786,515.263766 897.050798,515.791249 900.446713,517.70955 C891.281692,524.317906 880.124532,532.000984 868.886424,534.219575 C851.124999,537.724275 856.031307,513.388929 871.241846,512.551278 M598.946736,661.159283 C597.104649,664.863519 591.807417,655.607869 590.496436,653.883164 C592.940705,653.875275 600.808566,657.421463 598.946736,661.159283 M741.662029,563.646022 C755.462869,555.595483 771.852107,548.524839 786.673695,542.530891 C789.279863,555.085781 776.568875,571.29354 768.740501,579.883415 C762.410674,586.831574 754.777763,594.036559 746.195181,598.035158 C736.915646,602.357754 726.773312,600.459209 727.223468,588.329073 C727.389315,583.895843 728.398218,576.763955 730.202791,572.712015 C732.530572,567.488549 736.929467,566.403949 741.662029,563.646022 M555.117717,335.275452 C557.171061,335.154941 579.483405,332.270576 579.364943,335.046284 C579.013506,343.38921 557.356651,336.838146 555.117717,335.275452 M397.337987,496.36525 C409.122996,481.826866 428.148016,466.134736 428.426402,445.815769 C428.837071,415.917155 395.649901,430.834853 378.964508,432.0775 C387.787964,423.410577 432.122421,387.0498 405.898851,374.135353 C398.36071,370.423215 387.647784,374.050403 380.083976,375.994386 C366.664189,379.445745 354.186177,385.421912 341.003314,389.580534 C350.423029,379.554403 366.699728,368.159186 366.166648,352.974784 C365.515106,334.491142 350.340106,338.959932 337.218449,341.67242 C332.17591,342.715533 309.650333,351.674844 305.419261,345.591995 C303.869381,343.363527 306.37683,340.532503 306.907935,338.549009 C307.84576,335.038381 307.555528,333.813514 307.587118,330.227814 C307.652272,322.993195 312.459861,313.70396 308.538764,306.975092 C307.6424,308.504201 306.874371,310.094553 306.236649,311.748123 C304.943438,307.832499 305.81216,303.679804 304.518948,299.76418 C337.27768,308.140692 370.603055,312.726042 403.567121,319.87571 C420.254489,323.494995 435.960595,329.727989 452.876989,332.53333 C469.937512,335.360403 486.70188,339.688926 503.793993,342.385609 C519.389534,344.845221 534.329585,348.940624 549.7731,352.081816 C564.827664,355.143984 580.26723,348.432897 594.960485,345.034878 C627.871243,337.424897 660.770154,329.629209 693.724348,322.244445 C731.752671,313.719764 771.31113,306.431804 807.710598,292.215442 C808.415448,311.163348 809.931763,330.075693 812.247698,348.89321 C796.172385,341.295082 772.316084,331.387487 756.065052,344.983513 C749.56148,350.422319 747.557495,359.814284 750.128124,367.801604 C752.925805,376.496186 761.496541,380.534297 767.151134,387.079434 C749.940559,382.667936 705.542922,351.566187 697.639522,383.003787 C692.057981,405.207469 719.28453,419.550269 732.597701,432.047867 C719.377326,429.459841 701.673158,418.892397 693.909939,435.876564 C687.201033,450.559167 695.282126,466.535782 703.558681,478.646163 C708.044447,485.207105 713.08896,491.382806 717.857062,497.740262 C720.378331,501.10272 722.840369,504.512593 725.489972,507.776271 C728.147473,511.049828 733.160396,514.47748 735.022226,517.999962 C738.771553,525.104192 731.205771,525.538822 725.322151,528.105116 C717.975524,531.309527 711.667415,536.691041 704.948637,540.980051 C689.564353,550.800721 676.118899,559.922031 657.938909,563.061247 C639.22189,566.29134 621.199849,569.665652 602.729627,574.171978 C584.316661,578.664475 569.285789,582.981144 550.464129,577.174878 C541.883521,574.527585 534.894254,572.174654 525.792413,572.672503 C516.232518,573.196035 510.643079,572.700162 502.783116,566.779312 C468.960199,541.309975 432.246806,520.410184 397.337987,496.36525 M336.361573,470.795159 C349.43387,464.238168 362.59304,457.647592 376.09575,452.013202 C387.272653,447.346853 404.24433,441.911999 416.479495,443.956737 C413.030272,452.815293 406.735984,460.083497 399.985616,466.606903 C394.015124,472.375633 386.555957,481.082068 379.331741,485.108325 C372.770913,488.763171 365.138002,482.974685 358.667994,480.548658 C351.558291,477.88556 341.775293,476.642912 336.361573,470.795159 M339.646923,503.878428 C346.160366,501.171866 360.160617,510.253664 366.085699,512.614497 C377.728553,517.257139 389.436562,522.105242 399.697358,529.428763 C387.168012,543.905904 372.978221,557.142372 356.117109,566.441485 C345.02313,572.559895 326.325855,579.577199 315.861699,568.468443 C302.714375,554.508908 318.519199,526.064329 327.826375,514.102118 C328.134377,516.148832 328.444353,518.19357 328.754329,520.240283 C331.72378,515.487008 333.990355,506.229383 339.646923,503.878428 M578.792376,627.787578 C570.665873,629.498441 567.903731,627.953528 562.53937,621.72251 C558.912454,617.510547 555.348718,613.136585 551.2598,609.349375 C547.085983,605.485116 536.779777,596.166247 549.911305,601.531956 C561.879931,606.421547 572.132829,608.86733 585.301871,606.951006 C600.35841,604.76205 614.396174,598.396691 629.241455,595.1745 C621.103105,602.294535 613.023987,609.485691 604.869843,616.58597 C596.255671,624.087294 589.738278,625.482062 578.792376,627.787578 M580.650257,685.052097 C562.841448,698.45254 526.986906,697.002455 539.05425,667.518715 C540.888439,663.040047 543.453144,658.826109 546.420621,655.01124 C547.40978,653.736983 549.170917,651.097592 550.580617,650.24216 C554.519483,647.853669 553.427657,647.565233 557.214497,651.548027 C560.482077,654.983582 586.016593,683.054773 580.650257,685.052097 M575.370795,633.821037 C577.001623,633.291578 583.876377,629.306808 585.442051,631.51157 C587.02747,633.743989 573.550426,641.466579 575.370795,633.821037 M705.023663,838.190136 C701.019642,847.769783 668.971683,861.638441 674.942175,842.327026 C677.585856,833.772711 680.079484,827.29672 690.055971,826.64675 C695.813231,826.273363 708.549886,829.754356 705.023663,838.190136 M762.511367,708.368038 C767.786881,700.686935 785.208714,690.301246 792.648136,701.75573 C796.231616,707.273559 787.53452,710.100632 782.274801,708.682157 C779.451453,707.917603 777.141442,706.230447 774.071298,706.104009 C770.124534,705.94201 766.266617,709.037763 762.511367,708.368038 M776.497797,715.991848 C772.910369,719.622987 751.273258,737.826095 747.768753,735.018778 C754.83502,724.91955 762.947702,713.640893 776.497797,715.991848 M741.16054,900.198052 C733.648065,900.622804 737.399367,889.30266 738.125934,884.776578 C739.944328,887.929624 749.508172,899.725885 741.16054,900.198052 M760.250714,879.908719 C757.820266,875.584147 751.271284,869.147667 752.75206,863.584399 C753.885348,859.330949 764.106657,853.611609 768.387089,856.051466 C774.071298,859.295388 765.830281,880.625859 760.250714,879.908719 M938.526369,834.564924 C935.312096,845.636143 931.981336,842.779437 921.904156,844.92493 C911.793412,847.07635 904.804146,855.660299 895.90369,860.263429 C898.995552,853.728169 900.912664,845.764557 906.08946,840.462067 C907.285928,839.2372 914.622683,836.819075 910.442944,833.982124 C906.788387,831.502756 901.53459,839.549343 899.966941,841.742251 C892.25703,852.534912 886.865028,865.714088 882.412826,878.132661 C880.223251,884.231315 878.470011,890.444553 877.433467,896.849423 C876.509462,902.556909 877.506519,908.529125 876.564745,914.088441 C875.048429,923.041826 862.886316,923.087264 855.571279,925.396732 C848.949245,927.484933 842.356826,929.750937 835.484048,930.877025 C829.525402,931.852968 823.341678,930.074935 817.566648,931.248436 C811.313821,932.518742 808.504294,936.228905 801.396566,935.389278 C795.601792,934.707699 790.180175,932.042624 784.306427,931.77592 C778.809783,931.52897 773.326961,933.42949 767.863881,931.882601 C762.349469,930.319908 762.616008,929.715377 763.869733,924.298303 C764.653557,925.760241 765.439356,927.222179 766.225155,928.682142 C768.422628,926.959425 769.942892,921.706325 771.289412,919.238811 C773.378294,915.418015 775.0802,914.096344 774.306248,909.337142 C773.165062,902.307984 766.827338,897.30776 765.389997,890.622356 C763.889476,883.646539 769.048503,877.943004 772.096929,872.118958 C776.264822,864.147443 776.209539,858.236471 772.716881,849.992324 C775.350689,850.687733 777.984497,851.383141 780.62028,852.080525 C777.009159,844.243351 764.764122,847.420103 758.623834,849.741424 C755.537895,850.907023 750.647383,855.492373 747.326494,855.375813 C742.763727,855.21579 740.384613,849.217892 738.424064,845.914702 C732.749727,836.358762 726.271823,826.921357 719.558968,818.048972 C717.712933,815.609115 715.294331,814.040495 715.932052,811.258861 C716.475003,808.900004 721.766312,805.553351 723.484013,804.099315 C729.922431,798.656558 738.116063,795.639828 744.163555,789.910611 C753.302909,781.253565 763.842092,775.050205 773.184806,766.563061 C782.92042,757.722285 792.950215,749.6026 803.094523,741.247821 C813.36914,732.786359 822.269595,722.815544 832.469186,714.267156 C835.112866,719.055992 840.232405,736.202158 846.088384,737.529756 C852.915752,739.074669 852.712392,730.998448 852.372801,726.13849 C851.88908,719.212064 848.043009,712.483196 847.614571,705.872864 C847.154543,698.80222 853.958219,695.641272 859.093553,691.551796 C867.024593,685.233851 884.578709,670.843637 875.143199,658.999961 C867.014722,648.798002 840.581869,668.358342 833.296447,674.23968 C827.104825,679.237929 822.320929,683.758084 815.349432,687.701366 C810.447073,690.471147 802.223826,701.127492 796.413258,700.143647 C789.500992,698.974096 786.800055,691.427333 778.345807,691.676258 C770.083072,691.91728 763.06419,697.867764 757.940702,703.841956 C746.357079,717.345129 742.376751,735.413896 731.821774,749.489992 C726.617337,756.430248 719.866969,762.159465 714.222248,768.726334 C708.022729,775.933295 706.705825,784.236709 700.593178,791.289574 C683.100268,767.989438 664.041684,745.927999 645.595154,723.392417 C636.382748,712.139443 627.361855,700.752129 618.346886,689.341108 C614.968741,685.063951 611.158208,681.051523 608.064372,676.559026 C603.827376,670.407031 604.589482,665.466075 602.925089,658.604843 C602.18865,655.564406 598.735478,651.921414 599.659483,649.015317 C600.903335,645.109571 609.63597,642.043452 612.785088,640.447174 C625.644154,633.919817 637.308727,625.762596 649.29907,617.789105 C671.504799,603.025504 693.967196,589.180553 717.582624,576.570347 C717.175904,582.003226 713.639809,587.633664 716.014975,593.084323 C717.120622,589.949058 718.871887,575.979645 723.059524,575.379065 C722.25793,575.493649 722.917369,593.293736 723.564963,595.834348 C725.49787,603.418647 731.105078,608.604577 739.128914,608.553211 C754.408556,608.454432 768.104754,591.835749 776.586644,580.825773 C782.328109,573.371863 787.844496,564.702964 789.86625,555.374217 C791.684644,546.997706 789.684608,541.171684 798.39355,536.918234 C816.263565,528.192042 834.275734,521.081886 853.387626,516.455048 C852.53075,524.689317 850.143738,534.826081 857.628571,540.748907 C865.891306,547.286142 876.702951,541.46012 884.481965,537.135549 C892.187927,532.852465 904.06968,521.085837 913.120188,524.503612 C922.022618,527.86607 928.218188,539.028166 933.201496,546.440589 C937.592493,552.973872 942.37244,557.68566 937.286466,564.967693 C931.586462,573.128865 927.876623,581.094454 923.309907,589.958936 C921.554693,593.366833 919.880428,595.589374 921.120332,599.080246 C921.523103,600.214236 926.09969,606.960884 927.341569,607.926948 C935.270635,614.096723 945.977638,602.361705 951.638154,597.906744 C953.634241,617.089746 954.080449,636.187797 954.885991,655.430066 C955.476328,669.523941 960.933484,683.398526 949.365656,693.70124 C937.801776,704.000003 928.149085,714.573373 921.100588,728.519079 C917.335466,735.969038 913.959295,743.61458 909.886172,750.910443 C907.165491,755.784229 901.426,762.931922 904.938403,768.669042 C908.644293,765.152488 909.747966,759.806535 912.835879,755.841521 C914.685863,764.069863 916.547693,773.199075 925.252686,776.685996 C935.26866,780.698424 945.223429,773.756192 954.094269,769.891934 C950.913561,791.890154 944.710093,813.266063 938.526369,834.564924 M928.287291,859.85053 C921.414513,874.539059 915.205122,892.250244 902.511903,903.066612 C899.724094,905.441274 887.881828,914.712729 883.374344,913.159913 C879.549991,911.840217 881.654668,904.1117 882.322005,900.800608 C885.704099,883.990292 891.554155,873.412971 905.187173,862.689456 C910.82992,858.2503 918.07388,852.576399 925.34943,851.481921 C933.181752,850.302492 930.927023,854.206263 928.287291,859.85053 M1122.17823,1208.51294 C1104.3556,1184.2823 1079.1666,1165.45095 1055.36163,1147.24785 C1044.5796,1139.00172 1032.69785,1132.81812 1021.80328,1124.57002 C1009.48717,1115.24523 996.977566,1106.25036 983.182649,1099.22317 C957.026207,1085.8978 928.492626,1076.60857 903.809064,1060.85124 C891.771335,1053.16619 878.602294,1045.73994 867.28521,1037.11253 C862.313749,1033.32136 857.922752,1028.47524 853.431062,1024.13486 C849.257246,1020.1007 840.295585,1014.24505 838.635141,1008.34198 C845.580971,1007.20601 849.531684,1000.46726 855.731202,999.779758 C857.7727,999.552565 870.568586,1002.93675 868.819295,996.731419 C873.461037,996.614859 874.002014,996.545714 877.891521,995.530259 C879.502606,995.109458 881.411821,995.76733 883.040675,995.190457 C885.532329,994.311319 887.228312,991.770707 889.745633,990.79674 C891.534411,990.105283 898.178163,990.877739 899.185091,990.016381 C901.935387,987.667402 899.013321,987.874839 897.37262,984.941084 C902.717238,984.804769 906.38759,987.505403 911.746027,984.634868 C913.376856,983.75968 914.75694,981.744576 916.33841,980.701463 C919.142014,978.848358 920.154865,981.720869 922.075926,977.874391 C923.872602,983.180832 923.823243,981.712967 928.155009,980.152249 C932.469005,978.597457 935.584559,977.475321 940.498764,977.086129 C952.236388,976.157601 964.017448,977.582003 975.701765,976.748303 C979.976274,976.442086 983.628856,975.47207 987.875724,976.031163 C991.615179,976.523086 990.487814,979.122965 993.597446,975.62024 C994.320065,974.806296 991.984386,972.577828 993.103853,971.408277 C993.597446,970.890672 995.206557,971.254181 995.816637,970.989451 C1001.27972,968.604912 1001.30341,971.93576 1002.27282,976.276137 C1005.47722,975.525411 1008.74481,974.845808 1011.52867,972.967019 C1010.12291,971.712518 1007.76947,970.327628 1009.12783,968.035941 C1013.74786,969.786316 1016.76864,968.978298 1014.45863,974.049644 C1019.10827,975.584679 1019.97699,973.583404 1024.15278,973.144823 C1026.62272,972.88602 1030.06997,974.41908 1032.12726,972.447439 C1034.37409,970.294043 1030.8301,967.954942 1034.95653,966.103812 C1035.80353,966.534491 1036.42941,967.184461 1036.84008,968.051746 C1039.06914,968.725423 1038.66834,969.602586 1035.63769,970.683235 C1043.75432,974.889271 1041.84708,970.187361 1045.25484,965.21282 C1046.04261,964.066976 1049.56883,960.504983 1051.174,962.225724 C1053.61037,964.833506 1048.63693,965.663255 1049.70309,968.257207 C1051.5511,972.753655 1057.99939,966.990853 1059.97771,964.712995 C1061.47625,962.992254 1062.08633,959.693015 1063.70137,958.406904 C1065.94228,956.620969 1069.1684,959.380871 1071.97595,958.886973 C1084.79948,956.638749 1096.91026,939.39973 1087.24967,927.860296 C1084.65337,924.758616 1082.4559,925.375 1079.36206,923.417188 C1076.30377,921.483084 1074.58804,918.13643 1072.1339,915.372576 C1066.53064,909.06451 1059.66971,904.338893 1051.83541,901.318213 C1033.66332,894.308811 1014.0835,889.195978 995.001222,885.43445 C986.163946,883.691978 976.756078,881.026904 967.707544,881.04666 C962.376748,881.056538 954.348963,885.201331 949.365656,883.21586 C939.677426,879.355553 953.900781,859.595678 956.248306,853.21254 C963.142803,834.462193 968.345265,814.469199 971.756975,794.784397 C972.424312,790.931992 972.167644,785.941646 973.555625,782.270995 C975.148941,778.05113 975.490507,778.647759 978.900242,778.304006 C985.060274,777.681694 991.796821,780.911788 998.211546,779.795578 C1005.32125,778.558857 1013.00549,779.133754 1020.18233,776.93492 C1023.4815,775.925393 1026.53979,774.826963 1028.7116,772.043354 C1029.39671,771.170142 1028.6346,770.409539 1029.06699,769.799081 C1029.20124,769.605473 1031.65538,766.960155 1031.73436,766.808034 C1031.71067,765.438949 1031.82913,764.079741 1032.09172,762.734363 C1034.57942,764.798857 1033.35334,769.129355 1037.54493,769.23011 C1038.29321,764.613151 1038.30111,763.682647 1041.33177,761.084743 C1041.10077,761.284278 1043.61414,759.148663 1043.29232,759.375856 C1043.44434,758.554009 1043.74642,757.785504 1044.19658,757.074291 C1045.61417,756.390736 1047.11075,756.027227 1048.68629,755.985739 C1051.96177,752.617354 1050.60143,750.821541 1050.60143,746.287557 C1053.24511,747.660593 1055.88879,749.03363 1058.53247,750.406667 C1059.17217,736.974614 1067.35198,729.619484 1072.78741,718.73397 C1075.10335,714.09528 1077.46272,710.470068 1078.01554,704.87519 C1078.33539,701.647072 1077.50221,698.800244 1078.83886,695.757832 C1080.05112,692.997929 1082.7639,691.510308 1083.89719,688.503457 C1086.12823,682.586558 1084.46383,675.033868 1084.58624,668.889776 C1084.75604,660.369047 1085.60699,651.875975 1085.88538,643.359197 C1086.43228,626.639759 1084.75012,609.458032 1082.24859,592.932203 C1081.05212,585.027858 1079.05011,577.358608 1077.47852,569.537238 C1076.1853,563.108661 1073.09147,557.079153 1071.98582,551.099035 C1071.52579,548.61374 1072.23657,546.383296 1071.48631,543.635248 C1070.49912,540.021889 1068.84855,536.469774 1067.62049,532.92161 C1064.75371,524.634001 1061.91851,516.358244 1058.69437,508.199048 C1052.44549,492.386407 1045.13045,477.047908 1038.18067,461.539509 C1031.49546,446.625762 1025.95933,431.249727 1017.29975,417.323777 C1008.77047,403.607239 999.587682,390.121846 990.18771,376.99206 C980.396814,363.318985 968.01752,351.570138 958.522779,337.770625 C940.694227,311.860732 915.827048,290.510506 889.810787,272.88032 C836.125718,236.497812 778.110857,200.172596 713.736553,187.698706 C704.034504,185.819918 694.208069,184.516027 684.320429,184.273029 C678.186064,184.120908 668.020038,187.086272 662.211444,185.009925 C655.705898,182.684653 656.300183,175.378912 654.673303,169.647719 C652.578497,162.280735 647.853832,157.454363 642.489471,152.246702 C636.842776,146.764433 631.717313,140.361538 624.674739,136.633596 C617.537395,132.858239 609.118685,131.44569 601.211337,130.303798 C594.150993,129.282417 583.601939,130.236628 577.151675,127.16063 C571.277928,124.357265 574.178276,121.439315 579.678868,123.83966 C580.081639,121.413632 580.40741,119.846988 581.963213,117.972151 C582.743089,117.029793 586.43121,115.708122 586.520057,114.828983 C586.624698,113.7997 583.530862,110.867921 583.088603,109.540323 C582.136957,106.681641 582.677935,102.722553 583.807274,100.039699 C589.353276,104.968802 590.960413,107.151831 597.152034,102.440044 C599.768073,100.450622 600.569667,99.5734593 603.598349,98.5698584 C604.419687,98.2972267 606.261773,99.138829 606.978469,98.6666625 C609.714945,96.8649223 607.197624,97.2896746 608.498733,95.1599861 C608.170988,95.6973472 610.469154,90.0372752 610.360563,91.220655 C610.638949,88.2059011 611.531364,89.1324539 609.710996,85.4282183 C606.145285,78.1817457 597.065162,77.8854068 601.693083,69.6155774 C603.513451,66.3617768 605.116639,66.685774 605.629975,61.9680595 C605.904412,59.431399 605.562846,56.5233271 605.551,53.9432035 C605.529282,48.6663964 606.52239,44.9720388 601.576595,42.2852332 C596.824289,39.7011585 592.439215,42.5361335 590.510257,36.127312 C588.488503,29.4023957 590.524077,20.7809108 583.238655,16.1758051 C577.913782,12.8113714 570.225589,15.6878338 564.341969,14.0421654 C558.446503,12.3945214 553.024885,6.36303807 547.040573,10.9938265 C542.789756,14.2851633 540.533052,22.3771894 532.523037,18.0012524 C528.907967,16.0276357 526.917803,9.40149906 524.637407,5.68540991 C521.004568,-0.237415869 518.092374,-2.37698235 512.502935,3.39174722 C509.057661,6.94978899 501.791983,15.6107857 501.347749,20.5359374 C500.86008,25.9727674 505.604489,28.2446986 499.647818,31.4609629 C493.722736,34.6614225 490.397899,32.3144188 485.588336,38.8101663 C480.81826,45.2545485 484.51033,48.8145659 478.984071,54.9803895 C472.075754,62.6871751 468.399478,66.0140726 468.496223,76.3977858 C468.563351,83.5197961 462.269062,89.6717906 465.941389,96.4283164 C470.055974,104.000762 482.064087,107.149856 489.34556,110.23178 C486.915112,114.722301 483.580402,117.600739 486.417571,122.223625 C488.988199,126.409905 496.253877,127.279166 500.757413,126.518563 C503.786095,126.00886 503.894686,126.467198 506.279723,124.337509 C507.841449,122.942741 505.699259,121.202244 508.915506,120.429787 C512.339062,119.60399 517.80609,126.313101 520.02923,127.990379 C515.061717,134.436737 501.416852,135.641848 494.198559,138.909478 C489.799665,140.902851 485.756157,143.850434 481.276314,145.632419 C477.213062,147.248453 472.267267,146.873091 468.583095,149.374191 C462.219703,153.692835 459.572074,164.392643 455.672695,170.682929 C451.258006,177.802964 446.977574,181.110106 438.507531,182.587849 C427.940707,184.431076 419.431177,185.171923 409.577101,189.773078 C397.543321,195.391662 385.681312,201.324366 373.862739,207.381532 C354.798231,217.150836 337.090115,227.178943 319.387922,238.994961 C300.86834,251.358217 282.854196,264.262786 264.986156,277.181185 C247.311604,289.95734 232.472247,305.675153 217.119553,321.12626 C204.708669,333.615955 193.818049,347.097397 181.45455,359.58314 C166.860014,374.326986 156.125369,392.93509 142.593043,408.575854 C135.189159,417.132144 128.105123,425.546192 123.459433,435.625664 C119.694311,443.796714 113.147303,451.813668 108.77605,460.385763 C103.19056,471.346349 97.9051739,482.131107 91.6345777,492.728185 C89.0619748,497.076463 86.0036771,500.808357 83.2889197,504.959077 C79.8100814,510.275396 80.0154158,515.40996 79.0795648,521.538247 C78.1022521,520.042724 77.1269138,518.547201 76.1496011,517.053653 C74.3785921,520.921863 72.2364016,524.726853 70.7023169,528.687916 C69.7230298,531.214699 69.8770306,534.802374 68.8937948,537.013062 C67.6598141,539.788769 66.1573193,539.419334 64.6192858,541.730777 C62.9746363,544.202243 62.4455054,547.523213 60.7120094,550.174458 C53.2192788,561.632894 50.3366999,576.173253 46.4866802,589.247723 C41.3217307,606.789007 42.1371452,626.949927 42.4175056,645.036475 C42.7156353,664.140452 43.7600765,683.24443 46.6327835,702.146897 C49.235002,719.265405 54.798774,735.684553 63.5096903,750.695103 C71.099165,763.773524 81.5652955,771.395359 94.9712615,778.094593 C101.127344,781.17059 106.841168,780.22033 113.303278,780.712253 C120.381391,781.249614 125.208724,783.171865 132.697506,781.480758 C136.290857,780.66879 137.990789,778.053105 140.845727,777.181869 C142.612787,776.642533 143.564433,777.523647 145.260416,777.318185 C147.686916,777.023822 152.733403,775.834515 155.365237,776.120976 C163.552945,777.013944 162.178785,789.39103 162.984327,795.708974 C164.224231,805.444693 165.132441,815.283143 166.804731,824.955643 C170.321083,845.300292 177.912532,864.305491 182.398298,884.298485 C161.604243,886.835145 143.767793,890.715209 124.278796,898.583993 C104.726619,906.476484 84.9592359,909.155387 64.3823615,913.078914 C45.132263,916.749564 26.6166299,923.608821 11.2086537,936.035297 C3.98641165,941.857367 -3.51619081,948.671185 1.7869645,958.258735 C5.17893057,964.390973 11.2915772,965.949715 16.5690657,969.513684 C17.635225,968.164354 14.5512605,965.305672 13.986591,964.51346 C18.4229983,965.424208 18.2867668,967.494629 21.5267065,969.296369 C24.3579517,970.870916 26.675861,970.815599 29.7756204,971.927858 C37.3433771,974.646273 41.061114,981.428481 48.5419984,983.332952 C50.8954464,983.931557 53.9734877,985.363861 56.3802436,985.770833 C59.27072,986.258805 61.4346284,984.994425 64.3645921,985.529811 C65.9460618,986.570948 67.6558654,987.315746 69.494003,987.76223 C70.6983681,987.203138 71.8889127,986.612436 73.0616879,985.990124 C77.2710428,986.42673 79.8712868,989.074024 83.290894,991.249151 C83.5199209,988.509004 83.1902012,985.662176 85.7845222,983.874265 C86.7973735,986.539339 85.1606216,988.226494 87.9247382,990.059844 C91.427269,992.385116 96.0275489,989.482971 99.162847,988.01313 C100.049339,996.869711 120.559085,996.348154 127.060682,996.221717 C136.063805,996.047864 145.057056,992.475994 154.139154,994.469366 C158.772998,995.484821 163.718792,996.545714 168.330919,997.865409 C173.884819,999.45181 180.599648,1000.87029 186.066676,1002.87156 C188.240456,1003.66772 190.90388,1006.21821 193.217841,1006.04634 C195.059927,1005.90805 195.553519,1003.19161 197.697684,1003.26865 C200.124184,1003.35756 200.939598,1006.06017 203.040327,1006.87411 C206.183522,1008.0891 209.073999,1005.77766 212.061219,1006.94523 C213.135276,1007.36406 214.590386,1009.16382 215.964547,1009.75057 C218.051455,1010.63959 222.179861,1010.65144 224.501719,1011.08015 C227.792992,1011.6906 230.740725,1011.27968 233.560124,1011.48119 C235.834597,1011.64517 235.785238,1013.17427 236.873115,1013.27305 C238.120916,1013.38566 240.294697,1009.09468 241.970936,1008.46644 C244.413231,1007.54976 248.845689,1009.73279 251.335369,1010.11606 C233.293584,1034.56796 211.539986,1056.17897 187.960096,1075.10119 C162.524299,1095.51499 136.478422,1115.90112 109.202514,1133.80592 C84.4380025,1150.06307 60.4652132,1164.12336 41.264474,1187.07184 C25.0746477,1206.42276 -0.696791784,1227.12697 3.27563878,1255.17446 C7.24609498,1283.19823 37.6809942,1294.60333 62.0684009,1299.95323 C92.7402244,1306.6821 124.314335,1303.97356 155.069082,1307.75682 C168.184815,1309.37088 182.757633,1308.50952 195.960239,1307.13451 C211.553806,1305.51057 224.91831,1295.33627 238.324276,1287.97917 C262.437246,1274.74467 283.053608,1257.03744 306.805268,1243.39005 C336.543215,1226.30117 365.969211,1208.19487 398.571968,1196.75026 C413.739071,1191.42604 429.354356,1185.34912 441.589521,1174.39841 C443.409889,1172.76855 444.766281,1170.30894 446.823573,1168.96553 C450.320181,1166.68372 451.258006,1168.99714 453.287658,1168.30569 C454.849384,1167.77425 456.36175,1166.0871 457.712219,1165.58134 C461.1338,1164.29918 462.659988,1164.82864 466.490264,1164.82864 C463.202939,1162.93405 460.194001,1158.04841 463.60571,1154.06759 C469.447868,1147.24785 470.454797,1158.14521 472.650295,1160.67002 C474.510151,1158.27955 473.797403,1156.15184 473.321581,1153.4354 C474.893178,1154.47259 476.46675,1155.50977 478.040323,1156.54894 C476.956394,1151.29188 477.987015,1146.44971 480.772849,1141.86831 C483.341504,1137.64647 483.975276,1138.24112 484.684075,1132.38942 C492.6625,1139.67145 494.222251,1121.99583 494.940922,1115.55144 C495.6359,1109.30265 494.948819,1104.81608 499.059456,1099.35159 C503.472171,1093.48408 510.183051,1089.77589 515.784336,1085.2182 C524.633458,1078.01519 534.369072,1068.91956 546.606212,1075.82623 C556.266799,1081.28084 561.52257,1094.64968 570.586898,1101.51881 C576.083542,1105.68731 581.886213,1106.10811 585.390718,1112.57028 C588.223937,1117.79374 589.143993,1124.04649 591.819263,1129.41022 C598.299143,1142.4116 607.628036,1157.28978 618.269886,1167.26257 C628.175295,1176.54588 640.892207,1176.49847 652.483727,1182.25534 C663.95876,1187.9569 675.881975,1194.1326 688.030268,1198.26357 C701.296054,1202.77582 715.602332,1204.69412 728.518655,1210.16058 C735.162406,1212.97383 741.103283,1217.20752 747.806266,1219.90025 C755.034431,1222.8024 762.649573,1224.84911 769.974482,1227.50826 C798.995733,1238.04805 827.397032,1250.97237 857.885239,1256.8142 C871.407693,1259.4042 883.927167,1266.44323 897.548339,1267.92493 C903.390497,1268.56107 908.156624,1269.36514 913.874397,1270.82707 C922.843956,1273.11876 920.944613,1274.3377 924.249707,1281.81532 C929.685145,1294.12523 942.960802,1286.8353 953.193957,1287.14349 C969.573323,1287.63739 985.703918,1284.99009 1002.05762,1284.86366 C1030.65833,1284.64437 1058.19683,1281.42218 1085.86366,1272.03416 C1113.63909,1262.60861 1145.26255,1239.89522 1122.17823,1208.51294" id="ink"></path>
                <path d="M791.579691,246.706892 C791.971373,247.098507 792.889733,247.336137 791.579691,246.706892" id="ink"></path>
                <path d="M287.79615,771.009685 C294.008693,764.716319 320.437797,765.987766 322.435312,777.247164 C324.66256,789.813938 301.04672,808.795834 292.404452,814.117152 C281.281839,820.965405 267.706138,822.248829 269.678343,805.053347 C271.169665,792.065418 278.951405,779.971695 287.79615,771.009685 M309.622794,758.053693 C310.428808,761.534705 304.488831,760.351081 302.853439,759.52474 C302.082468,757.941917 308.816779,754.558709 309.622794,758.053693 M264.045975,781.099431 C269.318167,781.572482 275.357436,773.117454 279.334943,770.237236 C281.09299,772.953783 269.501175,787.885809 268.225959,791.292969 C265.040838,799.80588 263.269163,810.562288 267.61074,819.053243 C280.300604,843.867432 312.776764,808.432563 320.899211,796.055409 C326.582199,787.398786 330.516874,776.664334 322.489825,768.181363 C319.631782,765.159429 314.910561,764.321112 312.254996,761.448878 C308.760319,757.672458 311.511282,752.796247 304.484937,753.620592 C299.637168,754.18945 293.815951,758.562671 289.102517,760.145494 C283.421477,762.051668 278.31477,764.027701 273.356028,767.560609 C272.23851,768.35701 257.53361,780.514605 264.045975,781.099431" id="ink"></path>
                <path d="M636.615149,789.428052 C633.302117,806.477162 616.405454,823.965263 598.626763,824.644605 C580.921081,825.319975 575.188884,806.773133 578.314461,791.990484 C580.980278,779.382922 591.878359,757.479097 607.427314,759.89255 C619.651397,761.787558 639.45461,774.814246 636.615149,789.428052 M625.340184,760.933414 C614.114549,752.248955 598.605058,748.230506 585.593661,755.121262 C581.327564,757.379778 564.298696,767.345452 569.480366,774.091203 C576.467529,768.678314 582.499656,761.16582 591.57843,759.364172 C590.051159,766.401921 581.331511,772.732518 578.259211,779.585533 C574.667955,787.59065 572.70263,796.753826 573.290649,805.551509 C574.338427,821.210152 584.828052,833.376737 601.067634,831.2235 C615.935828,829.25301 628.933413,817.859127 636.02713,805.050941 C645.496602,787.946212 640.161021,772.398806 625.340184,760.933414" id="ink"></path>
                <path d="M521.09195,828.181934 C513.098359,840.015267 500.910767,851.145494 486.819475,854.800079 C468.577138,859.529887 473.702487,844.457174 479.153906,833.640308 C483.974662,824.076891 492.243558,807.625385 504.83532,807.713166 C509.109373,807.740938 517.069772,809.807168 520.814693,812.092753 C528.197148,816.597332 525.299618,821.955822 521.09195,828.181934 M504.06603,802.176803 C506.934273,798.982469 519.635375,785.286591 521.337967,795.962443 C524.985263,791.734014 522.107258,788.226318 517.438797,787.779777 C511.805795,787.241186 505.647566,793.512344 501.582432,796.628337 C493.21591,803.038549 486.77652,809.603483 481.23138,818.591098 C475.120012,828.499213 459.533094,850.892846 473.173356,860.724579 C487.916788,871.351469 509.376867,851.725214 518.608353,841.603621 C524.512755,835.128778 532.332573,825.622158 530.087182,816.127289 C527.330232,804.466305 513.764166,803.242234 504.06603,802.176803" id="ink"></path>
                <path d="M441.157643,611.480397 C432.906968,620.892376 416.148409,634.605413 402.338798,632.989589 C389.74346,631.516223 394.660368,617.381667 399.118683,610.541736 C405.814131,600.26135 414.784596,590.609339 427.746808,590.047314 C433.341634,589.80533 440.593375,589.918516 444.928069,594.155175 C450.845904,599.941308 445.516264,606.509983 441.157643,611.480397 M440.280336,585.332543 C430.616001,581.993564 426.819654,580.7212 417.426486,586.02922 C409.883639,590.291248 403.194173,596.315461 398.018061,603.155392 C390.271838,613.394797 382.459818,636.426142 402.350762,639.306523 C424.167794,642.467918 476.066489,597.702962 440.280336,585.332543" id="ink"></path>
                <path d="M470.017116,644.093567 C463.741522,650.503997 455.905838,655.733712 446.962235,657.518379 C450.745992,649.078594 459.194359,630.637684 469.210646,628.068462 C473.824362,626.883863 479.085996,628.435494 478.70625,633.692396 C478.432206,637.492824 472.493294,641.563185 470.017116,644.093567 M478.097482,621.782318 C472.900444,619.178141 474.538832,617.3993 468.49226,619.442249 C463.72782,621.050197 457.718439,623.842744 453.750682,627.060582 C451.585739,628.816119 444.846228,635.040121 445.670316,638.207468 C447.16581,643.963455 452.192549,635.143045 453.51383,633.447709 C455.778603,635.292576 444.198312,651.861432 443.509288,654.587952 C440.94111,664.742493 448.911858,665.8164 456.726011,662.493696 C467.261022,658.015522 498.460865,631.983466 478.097482,621.782318" id="ink"></path>
                <path d="M632.570826,895.019235 C633.349277,888.287994 634.453681,881.170374 640.633359,877.390915 C646.201397,873.982146 651.966923,874.476398 652.791391,881.464571 C653.558339,887.95457 647.198428,899.481232 642.054129,903.02141 C634.890841,907.952162 633.510336,901.805393 632.570826,895.019235 M641.774193,910.337123 C656.480408,901.732824 665.750883,862.273081 638.641214,873.33295 C623.23516,879.61701 628.900983,917.868582 641.774193,910.337123" id="ink"></path>
                <path d="M516.170471,746.705819 C518.489647,741.952604 521.142376,740.376324 525.845475,738.296285 C522.710076,741.255872 519.506003,743.989986 516.170471,746.705819 M519.562903,734.99341 C516.233258,738.334879 508.598814,743.429351 509.668146,749.169772 C510.645261,754.408465 514.645937,754.107835 518.27578,752.474679 C525.888641,749.053989 530.124767,734.075267 538.086877,732.671647 C529.255566,727.075447 527.193423,727.335452 519.562903,734.99341" id="ink"></path>
                <path d="M520.733167,437.516154 C521.156785,453.467835 521.529879,469.417541 521.881598,485.369222 C522.005963,490.976001 520.667099,498.967635 522.34991,504.337507 C523.092212,506.70262 529.811797,516.956708 532.196103,517.620045 C540.53826,519.941726 537.557391,499.032784 537.615687,493.884024 C537.819723,476.514855 537.563221,459.125943 537.493266,441.7548 C537.454402,432.803696 539.982504,357.745906 528.366056,358.111767 C526.36456,358.176285 521.434662,366.758211 520.69236,368.477754 C518.358577,373.881189 519.217472,381.890591 519.271881,387.649384 C519.42928,404.264402 520.292061,420.903111 520.733167,437.516154" id="ink"></path>
                <path d="M591.070156,484.015616 C591.724265,488.425396 591.38065,495.780322 596.346499,498.066581 C600.666518,500.055149 602.322491,497.689507 603.939134,493.994183 C607.654723,485.492158 606.313385,472.495017 606.245076,463.705226 C606.108459,446.284412 604.146131,428.937028 602.790303,411.581706 C602.194153,403.966797 603.431993,396.318151 602.479808,388.349984 C602.061675,384.85312 601.645612,370.786279 595.162478,371.441197 C589.300335,372.032608 589.828176,386.776197 589.509401,390.57472 C586.851565,422.195343 586.389962,452.450562 591.070156,484.015616" id="ink"></path>
                <path d="M867.757596,847.133495 C865.272862,859.833292 824.737553,904.057548 814.530211,879.323274 C808.475275,864.64904 821.601539,848.673517 831.836512,840.178937 C838.171696,834.920947 846.085741,829.762756 854.720143,831.355611 C862.05001,832.707778 869.334484,839.067461 867.757596,847.133495 M846.825833,824.35409 C843.962172,825.031152 820.030571,841.832455 819.811504,841.611334 C817.733327,839.525358 832.827248,817.031649 834.380453,815.063083 C847.17713,798.85274 855.669434,811.127907 863.67229,823.868797 C861.969093,816.258703 857.279873,805.210466 849.44477,801.991488 C839.5532,797.929119 831.836512,807.957849 827.078216,815.168751 C820.350291,825.359898 816.641939,836.425746 812.903983,847.92601 C811.121842,853.410991 809.091031,858.383285 806.073431,863.328183 C803.093329,868.208505 797.881111,873.587819 798.650806,879.761603 C802.886103,877.407542 805.135982,872.799218 807.804258,869.002977 C810.780413,870.208381 809.7581,879.698985 810.362015,882.115664 C811.88167,888.185737 816.03013,892.934952 822.44623,893.979897 C834.404136,895.924981 847.311333,884.863047 855.306295,877.350794 C863.731498,869.435435 872.800086,858.582881 872.727502,846.399686 C872.650095,833.670536 860.129719,821.205558 846.825833,824.35409" id="ink"></path>
                <path d="M879.243425,620.290002 C872.458895,630.671413 860.554222,643.116789 847.958007,645.528392 C838.712058,647.298357 832.613208,640.446943 836.326825,631.197833 C839.464158,623.380985 850.153749,618.44455 857.16098,615.005932 C862.718708,612.276491 888.631981,605.923687 879.243425,620.290002 M874.252214,603.309463 C860.354964,602.785029 849.14574,612.830722 838.782384,620.848207 C841.122685,611.638826 846.41669,601.618957 853.871273,595.623722 C864.015836,587.465197 873.632952,592.530753 884.312776,596.611009 C881.677495,588.297538 869.850962,585.307866 862.316285,586.481883 C852.789031,587.96778 845.940034,596.098494 841.122685,603.965005 C835.377421,613.349197 833.410239,624.408001 826.647197,633.21015 C823.550888,637.238758 804.375262,652.314251 808.717908,658.476351 C815.879465,650.874043 823.042976,643.273722 830.204534,635.671415 C832.062319,644.656321 834.109595,654.886759 845.582542,654.012702 C854.744491,653.313456 865.193801,645.526405 871.894331,639.574873 C880.546414,631.887146 897.575137,604.191465 874.252214,603.309463" id="ink"></path>
                <path d="M679.575065,691.954822 C673.688104,694.66145 660.729349,698.339941 657.437272,690.208229 C652.8644,678.914514 667.577885,659.104679 674.581136,651.580136 C678.889623,646.949496 681.811561,644.554337 687.817985,647.55075 C692.612156,649.943937 699.658492,656.743033 701.497432,661.970984 C705.447532,673.191761 688.783477,687.720418 679.575065,691.954822 M693.082173,637.713843 C697.876344,638.794129 698.463866,644.881577 692.469193,642.543587 C687.976615,640.793051 686.932786,636.328002 693.082173,637.713843 M699.100347,646.287131 C697.310366,640.826564 700.952996,632.263132 692.136264,631.868867 C687.140377,631.646108 677.988758,636.724238 673.627393,638.788215 C667.581802,641.648606 661.89264,646.015088 658.735694,652.165619 C655.811798,657.862745 657.899456,659.364894 662.356782,654.635688 C662.901218,655.006297 652.274921,682.4077 652.182876,685.153754 C651.767694,697.701232 660.651012,705.965022 673.128001,703.739397 C684.594453,701.695134 694.928947,692.319517 701.238923,682.857162 C704.431121,678.066845 707.053423,672.584593 707.292348,666.717933 C707.660528,657.718839 701.65998,654.101459 699.100347,646.287131" id="ink"></path>
                <path d="M754.102691,641.684311 C749.264953,632.368561 760.475293,616.691861 770.512141,621.277522 C791.411555,630.825965 760.450035,653.898697 754.102691,641.684311 Z M772.876609,629.524087 C770.634541,629.614356 756.455502,635.090669 758.54214,638.801724 C761.405926,643.894896 771.755575,631.572188 772.876609,629.524087 Z" id="ink"></path>
                <path d="M87.3597624,612.305132 C86.7993865,608.337221 77.904118,614.097753 77.956246,616.653434 C79.4269999,613.710529 88.5270569,620.573512 87.3597624,612.305132" id="ink"></path>
                <path d="M573.843686,312.477817 C585.168107,311.645486 570.739726,254.522031 562.486367,259.573901 C553.540229,265.048922 563.452,313.240288 573.843686,312.477817" id="ink"></path>
                <path d="M594.992562,285.804076 C605.602352,287.323379 603.916356,262.96488 598.209591,258.605572 C587.676249,250.558231 582.112049,283.959066 594.992562,285.804076" id="ink"></path>
            </g>
        </g>
    </g>
</svg>